HIERARCHY
ROOT Hips
{
 OFFSET 0.000000 0.000000 0.000000
 CHANNELS 6 Xposition Yposition Zposition Yrotation Xrotation Zrotation
 JOINT Chest
 {
  OFFSET 0.000000 9.588913 -0.003946
  CHANNELS 3 Yrotation Xrotation Zrotation
  JOINT Chest2
  {
   OFFSET 0.000000 9.541882 0.008053
   CHANNELS 3 Yrotation Xrotation Zrotation
   JOINT Chest3
   {
    OFFSET 0.000000 9.501360 0.000000
    CHANNELS 3 Yrotation Xrotation Zrotation
    JOINT Chest4
    {
     OFFSET 0.000000 9.491660 0.000000
     CHANNELS 3 Yrotation Xrotation Zrotation
     JOINT Neck
     {
      OFFSET 0.000000 14.331917 0.000000
      CHANNELS 3 Yrotation Xrotation Zrotation
      JOINT Head
      {
       OFFSET 0.000000 8.884799 0.017034
       CHANNELS 3 Yrotation Xrotation Zrotation
       End Site
       {
        OFFSET 0.000000 16.896195 0.008993
       }
      }
     }
     JOINT RightCollar
     {
      OFFSET -2.923010 9.499495 0.000000
      CHANNELS 3 Yrotation Xrotation Zrotation
      JOINT RightShoulder
      {
       OFFSET -13.795216 0.000000 0.000000
       CHANNELS 3 Yrotation Xrotation Zrotation
       JOINT RightElbow
       {
        OFFSET -30.272209 0.000000 0.000000
        CHANNELS 3 Yrotation Xrotation Zrotation
        JOINT RightWrist
        {
         OFFSET -24.478199 0.000000 0.000000
         CHANNELS 3 Yrotation Xrotation Zrotation
         End Site
         {
          OFFSET -18.090752 0.000000 0.000000
         }
        }
       }
      }
     }
     JOINT LeftCollar
     {
      OFFSET 2.923010 9.499495 0.000000
      CHANNELS 3 Yrotation Xrotation Zrotation
      JOINT LeftShoulder
      {
       OFFSET 13.795216 0.000000 0.000000
       CHANNELS 3 Yrotation Xrotation Zrotation
       JOINT LeftElbow
       {
        OFFSET 30.272209 0.000000 0.000000
        CHANNELS 3 Yrotation Xrotation Zrotation
        JOINT LeftWrist
        {
         OFFSET 24.478199 0.000000 0.000000
         CHANNELS 3 Yrotation Xrotation Zrotation
         End Site
         {
          OFFSET 18.090752 0.000000 0.000000
         }
        }
       }
      }
     }
    }
   }
  }
 }
 JOINT RightHip
 {
  OFFSET -7.826875 0.019532 0.001973
  CHANNELS 3 Yrotation Xrotation Zrotation
  JOINT RightKnee
  {
   OFFSET 0.000000 -40.546152 -0.001885
   CHANNELS 3 Yrotation Xrotation Zrotation
   JOINT RightAnkle
   {
    OFFSET 0.000000 -39.417092 -0.003189
    CHANNELS 3 Yrotation Xrotation Zrotation
    JOINT RightToe
    {
     OFFSET 0.000000 -7.579396 17.243563
     CHANNELS 3 Yrotation Xrotation Zrotation
     End Site
     {
      OFFSET 0.000000 -1.500329 6.694466
     }
    }
   }
  }
 }
 JOINT LeftHip
 {
  OFFSET 7.826875 0.019532 0.001973
  CHANNELS 3 Yrotation Xrotation Zrotation
  JOINT LeftKnee
  {
   OFFSET 0.000000 -40.546152 -0.001885
   CHANNELS 3 Yrotation Xrotation Zrotation
   JOINT LeftAnkle
   {
    OFFSET 0.000000 -39.417092 -0.003189
    CHANNELS 3 Yrotation Xrotation Zrotation
    JOINT LeftToe
    {
     OFFSET 0.000000 -7.579396 17.243563
     CHANNELS 3 Yrotation Xrotation Zrotation
     End Site
     {
      OFFSET 0.000000 -1.500329 6.694466
     }
    }
   }
  }
 }
}
MOTION
Frames: 15
Frame Time: 0.008333
2.128473 28.422072 15.773748 -43.350689 -40.501176 3.296592 20.838127 15.523890 13.577524 12.069784 10.695936 5.728371 15.317768 13.157632 7.541440 12.069784 10.695936 5.728371 4.436768 30.975972 -8.462323 6.954498 9.985487 -10.653651 17.408295 -3.158326 -9.160949 -0.508530 -42.246082 76.064252 83.369146 2.400679 6.746671 25.196657 -5.091580 -15.570592 12.970070 1.153114 -5.258504 -9.876774 -30.466462 -90.219047 -100.016177 -16.708035 -26.065902 -27.586611 24.169228 23.225533 -3.949119 -18.040531 37.640817 -154.828299 18.938146 177.069342 -15.968841 -55.212875 27.075543 1.849417 -35.334278 -6.687898 22.833231 -50.917895 45.387600 161.102068 15.151478 -169.853684 -14.982847 -40.337326 -7.446903 -5.601174 -42.701013 13.053082
2.137128 28.417055 15.764138 -43.351999 -40.501497 3.297200 20.846823 15.525295 13.586522 12.072808 10.700377 5.729060 15.321712 13.163093 7.542571 12.072808 10.700377 5.729060 4.426346 30.936317 -8.470058 6.944067 9.931079 -10.659036 17.397016 -3.174122 -9.164018 -0.485058 -42.259389 76.026891 83.356286 2.398098 6.727654 25.223482 -5.096742 -15.568915 12.969797 1.138633 -5.262627 -9.906658 -30.473771 -90.184984 -100.011926 -16.726854 -26.060407 -27.611548 24.146199 23.195224 -3.961704 -18.043757 37.654858 -154.813932 18.935006 177.071665 -15.981060 -55.222975 27.082544 1.841911 -35.311493 -6.677346 22.826271 -50.932933 45.392062 161.109889 15.142088 -169.860010 -14.993362 -40.344819 -7.446131 -5.604633 -42.671358 13.079903
2.146321 28.412999 15.755081 -43.359656 -40.504853 3.304540 20.855608 15.531259 13.594066 12.075670 10.705329 5.729881 15.325471 13.169189 7.543885 12.075670 10.705329 5.729881 4.417164 30.898070 -8.480256 6.935672 9.879133 -10.667670 17.387792 -3.190174 -9.169614 -0.465831 -42.271336 75.994319 83.347309 2.400911 6.712383 25.242358 -5.106729 -15.562646 12.973331 1.125924 -5.266116 -9.921907 -30.487837 -90.162764 -99.988503 -16.757807 -26.076628 -27.653560 24.118231 23.160840 -3.971233 -18.043004 37.665886 -154.800241 18.932123 177.071366 -15.989787 -55.233175 27.078007 1.836308 -35.288755 -6.664562 22.822390 -50.942133 45.393696 161.116890 15.135070 -169.869732 -14.999996 -40.345273 -7.451646 -5.609436 -42.646391 13.105060
2.156034 28.410136 15.746757 -43.371902 -40.512950 3.318714 20.864301 15.543800 13.599649 12.077573 10.710535 5.730611 15.328031 13.175623 7.545070 12.077573 10.710535 5.730611 4.409980 30.861050 -8.494183 6.930490 9.829669 -10.681235 17.382414 -3.206075 -9.175592 -0.448601 -42.279727 75.967755 83.344345 2.406027 6.698105 25.248739 -5.121546 -15.551369 12.980592 1.115939 -5.269599 -9.923908 -30.511229 -90.151102 -99.953759 -16.793098 -26.107680 -27.707208 24.084673 23.131887 -3.976920 -18.037574 37.674177 -154.790188 18.929857 177.069506 -16.007316 -55.238776 27.078367 1.831645 -35.267545 -6.651274 22.818969 -50.942611 45.392139 161.118317 15.132145 -169.885519 -15.008511 -40.337324 -7.461172 -5.618205 -42.625454 13.128439
2.165824 28.408065 15.738124 -43.387347 -40.522117 3.333255 20.874582 15.557286 13.606486 12.079239 10.715616 5.731447 15.330294 13.181901 7.546374 12.079239 10.715615 5.731447 4.404035 30.824607 -8.510818 6.927397 9.781562 -10.698318 17.380820 -3.221878 -9.179062 -0.437490 -42.283565 75.946088 83.351541 2.413698 6.684497 25.239443 -5.140323 -15.537038 12.987318 1.106736 -5.272446 -9.920418 -30.540354 -90.145511 -99.915826 -16.825788 -26.141248 -27.768849 24.048758 23.115552 -3.980096 -18.031277 37.686618 -154.780952 18.928785 177.066877 -16.032183 -55.241772 27.089082 1.824835 -35.245503 -6.638780 22.810656 -50.940500 45.398033 161.116745 15.132277 -169.900896 -15.025361 -40.326990 -7.477482 -5.625788 -42.606173 13.156893
2.175386 28.406481 15.728466 -43.403768 -40.529573 3.343216 20.886085 15.567445 13.616801 12.081839 10.720727 5.732908 15.333747 13.188178 7.548490 12.081839 10.720727 5.732908 4.398775 30.787964 -8.528471 6.925341 9.733436 -10.716767 17.380837 -3.237873 -9.179702 -0.431864 -42.285093 75.926054 83.368733 2.430076 6.671389 25.212370 -5.159342 -15.522385 12.988875 1.095814 -5.276469 -9.919147 -30.569318 -90.140582 -99.878030 -16.853956 -26.170550 -27.841249 24.013483 23.113363 -3.982749 -18.028070 37.706229 -154.770554 18.929498 177.063836 -16.055310 -55.244504 27.103692 1.813939 -35.221040 -6.626855 22.793980 -50.940463 45.416364 161.117010 15.133558 -169.912159 -15.052042 -40.318607 -7.492655 -5.631700 -42.586306 13.191164
2.184975 28.405378 15.718025 -43.415841 -40.535139 3.348076 20.896154 15.573620 13.628931 12.084498 10.725914 5.735007 15.337294 13.194527 7.551410 12.084498 10.725914 5.735007 4.395706 30.751698 -8.546033 6.925798 9.686092 -10.735671 17.381103 -3.252011 -9.179303 -0.422992 -42.287055 75.905532 83.390895 2.453282 6.655149 25.173505 -5.172043 -15.508962 12.983062 1.082106 -5.283688 -9.923916 -30.594074 -90.131705 -99.844585 -16.878020 -26.189581 -27.923811 23.978962 23.123125 -3.987548 -18.030308 37.728723 -154.760316 18.931583 177.063465 -16.079321 -55.244068 27.123148 1.800497 -35.195818 -6.613283 22.769692 -50.942856 45.436519 161.120176 15.134872 -169.919772 -15.088405 -40.310212 -7.495223 -5.638012 -42.565883 13.227346
2.194377 28.404860 15.706924 -43.420306 -40.539970 3.346201 20.903188 15.576030 13.642902 12.085752 10.731138 5.737501 15.339090 13.200935 7.554788 12.085752 10.731138 5.737501 4.395989 30.716998 -8.563909 6.930210 9.641342 -10.755833 17.381765 -3.262118 -9.178902 -0.407390 -42.288493 75.882644 83.415727 2.468853 6.640999 25.135442 -5.174301 -15.501018 12.972046 1.067934 -5.292449 -9.930621 -30.616115 -90.121859 -99.815650 -16.897369 -26.200604 -28.018135 23.945893 23.142287 -3.998334 -18.035888 37.752525 -154.750763 18.935144 177.065332 -16.097426 -55.242251 27.133132 1.787302 -35.169886 -6.596588 22.739591 -50.947731 45.452121 161.127622 15.134806 -169.923551 -15.121615 -40.301817 -7.496775 -5.641963 -42.546461 13.263816
2.203325 28.404975 15.695256 -43.416231 -40.544952 3.337039 20.906592 15.577065 13.658789 12.085279 10.736231 5.740117 15.338719 13.207208 7.558264 12.085279 10.736231 5.740117 4.398796 30.684293 -8.581935 6.937587 9.599651 -10.776867 17.381118 -3.269293 -9.179567 -0.388575 -42.288234 75.857076 83.441546 2.465568 6.639459 25.104914 -5.166069 -15.498761 12.960152 1.055502 -5.299862 -9.937192 -30.637522 -90.117432 -99.787268 -16.909203 -26.209143 -28.126891 23.913575 23.164620 -4.017554 -18.041917 37.776468 -154.742439 18.940694 177.064568 -16.093048 -55.243888 27.109717 1.775759 -35.143000 -6.577726 22.704354 -50.952865 45.464289 161.137459 15.133156 -169.928177 -15.140985 -40.296313 -7.509034 -5.644036 -42.526937 13.297357
2.211879 28.405802 15.683507 -43.409493 -40.551109 3.327305 20.909512 15.581583 13.673790 12.083809 10.741029 5.743122 15.337100 13.213118 7.562188 12.083809 10.741029 5.743122 4.402741 30.654208 -8.599001 6.946064 9.561546 -10.797131 17.377561 -3.274493 -9.183775 -0.370547 -42.287291 75.833892 83.464870 2.446063 6.649071 25.083317 -5.152676 -15.498110 12.949045 1.044360 -5.307291 -9.947512 -30.657592 -90.117051 -99.758677 -16.913777 -26.214799 -28.243151 23.885448 23.189101 -4.038768 -18.046606 37.798217 -154.735261 18.947570 177.061046 -16.074077 -55.247979 27.065602 1.765946 -35.115905 -6.559075 22.669231 -50.955943 45.473884 161.146966 15.132183 -169.935798 -15.150148 -40.291015 -7.531995 -5.645088 -42.507302 13.327999
2.219942 28.407219 15.671796 -43.405261 -40.558174 3.320746 20.914593 15.590037 13.685915 12.082565 10.745679 5.746572 15.335772 13.218823 7.566670 12.082565 10.745679 5.746572 4.407732 30.627037 -8.613690 6.955197 9.527208 -10.814942 17.371942 -3.278498 -9.191404 -0.353881 -42.286455 75.816076 83.483452 2.421742 6.656561 25.073400 -5.143655 -15.496622 12.936918 1.033011 -5.315597 -9.961257 -30.675100 -90.115077 -99.732735 -16.914094 -26.215988 -28.358474 23.865513 23.219940 -4.054839 -18.049746 37.820622 -154.729393 18.954903 177.058699 -16.067270 -55.250154 27.036946 1.757835 -35.088343 -6.542685 22.638933 -50.959501 45.483022 161.157176 15.132753 -169.942200 -15.161262 -40.284578 -7.548016 -5.643790 -42.486891 13.355972
2.227562 28.408418 15.659362 -43.397031 -40.560588 3.310087 20.918141 15.594649 13.696345 12.081312 10.750270 5.749327 15.334412 13.224479 7.570278 12.081312 10.750270 5.749327 4.415095 30.602231 -8.624740 6.966206 9.495848 -10.829129 17.366425 -3.281863 -9.199125 -0.343811 -42.288897 75.806280 83.495150 2.402430 6.659958 25.080066 -5.142686 -15.495341 12.924334 1.019907 -5.322045 -9.976238 -30.687906 -90.109676 -99.714146 -16.909793 -26.211243 -28.471219 23.849370 23.254867 -4.070155 -18.056783 37.848150 -154.724425 18.962520 177.059879 -16.087559 -55.249202 27.047198 1.749074 -35.059206 -6.530776 22.609980 -50.970623 45.491416 161.166968 15.131978 -169.946064 -15.180109 -40.283178 -7.546605 -5.638517 -42.463266 13.379054
2.235070 28.409217 15.646569 -43.381033 -40.558154 3.295300 20.917388 15.594859 13.703872 12.079360 10.754683 5.751180 15.332145 13.229957 7.572728 12.079361 10.754683 5.751180 4.424488 30.579429 -8.632215 6.978712 9.466943 -10.839672 17.361372 -3.283963 -9.205303 -0.352021 -42.300368 75.812588 83.497233 2.393777 6.670831 25.104460 -5.144727 -15.497629 12.913888 1.004550 -5.325805 -9.994850 -30.695459 -90.101560 -99.701522 -16.902568 -26.201138 -28.579002 23.838127 23.289374 -4.087600 -18.069318 37.874049 -154.719389 18.970134 177.062650 -16.115589 -55.247988 27.075008 1.739846 -35.030205 -6.522811 22.583587 -50.987694 45.490668 161.173135 15.128784 -169.952754 -15.194351 -40.285908 -7.543066 -5.631258 -42.438712 13.395326
2.242557 28.410143 15.634591 -43.361160 -40.556639 3.283357 20.912854 15.597792 13.705037 12.076542 10.758718 5.752911 15.328776 13.234985 7.574986 12.076542 10.758718 5.752911 4.434769 30.558530 -8.637541 6.991735 9.440426 -10.847959 17.360974 -3.286412 -9.210351 -0.379747 -42.319728 75.836774 83.491138 2.399255 6.692324 25.136561 -5.145807 -15.502930 12.907962 0.987697 -5.328663 -10.021153 -30.697266 -90.092296 -99.690136 -16.893673 -26.186399 -28.677063 23.834451 23.319898 -4.104059 -18.084833 37.889621 -154.715715 18.977052 177.064974 -16.126354 -55.246953 27.084874 1.734207 -35.004655 -6.515205 22.564918 -51.003943 45.476266 161.175914 15.125170 -169.964140 -15.201745 -40.286919 -7.534156 -5.627035 -42.414470 13.404146
2.249573 28.411335 15.623533 -43.342344 -40.558418 3.275070 20.907928 15.605846 13.701514 12.072767 10.762201 5.754081 15.324175 13.239361 7.576490 12.072767 10.762201 5.754081 4.446629 30.538853 -8.640838 7.006100 9.415468 -10.854290 17.369594 -3.292600 -9.213391 -0.409264 -42.337598 75.866408 83.482383 2.414803 6.713944 25.169490 -5.147321 -15.509948 12.911531 0.969030 -5.329710 -10.061645 -30.690582 -90.082601 -99.682992 -16.880769 -26.163540 -28.762168 23.832577 23.343998 -4.117725 -18.101452 37.898585 -154.713406 18.983361 177.066663 -16.120821 -55.243824 27.079377 1.731418 -34.982984 -6.508882 22.552596 -51.018381 45.457836 161.178031 15.122598 -169.975773 -15.207773 -40.285724 -7.518121 -5.624456 -42.389999 13.410045
